<?xml version="1.0" encoding="utf-8"?>
<!-- Generator: Adobe Illustrator 24.1.3, SVG Export Plug-In . SVG Version: 6.00 Build 0)  -->
<svg version="1.1" id="Layer_1" xmlns="http://www.w3.org/2000/svg" xmlns:xlink="http://www.w3.org/1999/xlink" x="0px" y="0px"
	 viewBox="0 0 250.6 250.3" style="enable-background:new 0 0 250.6 250.3;" xml:space="preserve">
<style type="text/css">
	.st0{fill:#E8ECF0;}
	.st1{fill:#151515;}
	.st2{display:none;}
	.st3{display:inline;fill:#F7AA91;}
	.st4{display:inline;fill:#BA2029;}
	.st5{display:inline;fill:#E15D25;}
	.st6{display:inline;}
	.st7{fill:#282625;}
	.st8{fill:#100F0E;}
	.st9{fill:none;stroke:#151515;stroke-miterlimit:10;}
	.st10{fill:#E35139;}
	.st11{fill:#A51E22;}
	.st12{display:none;fill:#C74527;}
	.st13{display:none;fill:#F8F2EF;}
</style>
<g id="Layer_3">
	<g id="LOGO_8_">
		<g id="CIRCLE_MOON_8_">
			<polygon class="st0" points="141.7,173.8 145.4,170.9 169.6,170.9 174.6,178.8 164.9,188.4 190.3,168.2 204.9,176.1 174.9,201.9 
				134.9,206.5 99.9,204.3 57.8,174.1 88.1,172.4 93.6,168.2 100.8,170.9 113.6,181.4 102.3,168.8 106.8,166.3 133.7,172.2 
				146.6,181.9 			"/>
			<path class="st0" d="M192.2,50.1c14,15.7,22.5,36.5,22.5,59.2c0,49.2-39.9,89.1-89.1,89.1s-89.1-39.9-89.1-89.1
				c0-22.7,8.5-43.5,22.5-59.2C39.7,68,27.5,93.8,27.5,122.3c0,54.2,44,98.2,98.2,98.2s98.2-44,98.2-98.2
				C223.8,93.8,211.6,68,192.2,50.1z"/>
		</g>
		<g id="Centaur_8_">
			<g id="Body_24_">
				<path d="M84.9,58.4l0.5,6.6c0,0.2,0,0.4,0.1,0.6l1.4,4.2c0.2,0.8,1.1,1.1,1.8,0.6c2.9-2.1,9.9-7.4,11.8-7.4
					c1.8,0,8.1,5.6,10.7,7.7c0.6,0.5,1.6,0.3,2-0.4l2-4.1c0.2-0.3,0.2-0.6,0.2-0.9v-7.1v-2.5c0-0.6-0.8-1.3-1.3-1.6l-6-1.8
					c-0.2-0.1-0.5-0.1-0.7-0.1l-15.8-0.4c-0.3,0-0.5,0-0.8,0.2l-5,2.5c-0.6,0.3-1,0.9-1,1.5L84.9,58.4z"/>
				<polygon points="85.1,60.1 87.7,63.1 93.2,61.9 97.7,61.6 109.2,61.8 112.4,63.1 115.9,60.2 115.4,65.2 113.1,70.3 112.4,71.5 
					110.1,69.8 101.1,63.6 99.1,63.6 87.7,71.7 86.7,70.6 85.5,65.6 				"/>
				<path d="M92.4,58.5c0,0,0.5,2.2,2.4,3c1.8,0.7,3.3,1.2,5.6,1.3c2.3,0,7.8-1.4,8.7-2.4c0.3-0.3,0.7-2.4-0.1-2.7
					c-0.2-0.1-1.3,0-1.5,0C105.1,57.9,93.5,59.1,92.4,58.5"/>
				<path d="M115.2,53.3l-6.9-2.1c-0.2-0.1-0.4-0.1-0.6-0.1l-17.1-0.5c-0.3,0-0.6,0.1-0.9,0.2l-4.4,2.4c-0.6,0.3-1,1-1,1.7v3.8
					l0.3,7.4c0,0.1,0,0.3,0.1,0.4l1.6,5.3c0.2,0.7,1.1,1,1.7,0.5c2.9-2.3,10.1-8,12.2-8s8.7,5.7,11.3,8c0.6,0.5,1.4,0.3,1.8-0.4
					l2.3-4.7c0.1-0.2,0.2-0.5,0.2-0.7l0.7-7.8V55C116.5,54.3,116,53.5,115.2,53.3z M115,58.3v7c0,0.3-0.3,1.3-0.4,1.6l-1.4,2.9
					c-0.4,0.7-1.3,0.9-2,0.4c-2.6-2.1-8.9-7.2-10.8-7.2c-1.8,0-8.7,4.8-11.6,6.9c-0.7,0.5-1.6,0.2-1.8-0.6l-1.2-3.6
					c-0.1-0.2-0.1-0.4-0.1-0.6l-0.4-6.9l-0.2-2.5c0-0.7,1.3-1.4,1.9-1.7l3.6-1.7c0.2-0.1,0.7-0.2,1-0.2l16,0.4
					c0.2,0,0.5,0.1,0.7,0.1l6.2,2.2c0.6,0.2,0.4,0.7,0.4,1.3L115,58.3z"/>
				<polygon points="89.8,72.2 91.9,77 90.7,82.7 110.6,84.8 108,77.8 109.9,71.4 100.4,64.7 				"/>
				<path d="M89.1,72.1l1.2,2c0,0,9.4-8.5,10.1-8c0.7,0.6,9.5,6.7,9.5,7s0.8-1.9,0.8-1.9s-8.1-7.2-10.1-7
					C98.7,64.5,89.1,72.1,89.1,72.1z"/>
				<path d="M112.4,86.3l-2.8-8.7l2.4-7l-11.6-8l-12.7,9l2.8,5.5l-1.4,6.4L112.4,86.3z M89.8,72.2l10.6-7.4l9.5,6.6l-1.9,6.4
					l2.5,7.1l-19.9-2.2l1.2-5.6L89.8,72.2z"/>
			</g>
			<g id="Horse_body_8_">
				<g id="Leg_Back_2_8_">
					<path id="Leg_Back_Color_16_" d="M120.3,118c0,0-0.8,5.4-0.5,7.8c0.3,2.4,1.3,6.4,2,7.8c0.7,1.5,3.7,6.4,5.9,8s7.8,3.9,7.8,3.9
						l-7.7,16.6l-8.1,5l7.8,1.1l4.2-4c0,0,9-18.6,9.1-18.8s-1.2-1.6-1.5-2.1s-1.6-2.4-2.1-3.8c-0.5-1.4-1.5-6.1-1.1-8.2
						c0.3-2.1,3.4-12,4.3-14.3C141.4,114.7,120.3,118,120.3,118z"/>
					<path id="Dark_Shadow_32_" d="M118.7,122.2c0,0,0.6,4,1,5s0.4,1,0.4,1s4.8,2.5,8.5,2.6c3.7,0.1,8.1-1.7,8.9-2.1
						c0.5-1.2,2.7-8.7,2.7-8.7S134.4,124.2,118.7,122.2z"/>
					<path id="Leg_Back_Stroke_16_" d="M142,143.3c-0.5-0.8-2.5-4.9-3-6.4c-0.5-1.6-0.6-4.1-0.5-5.9c0.2-1.8,0.9-4.4,1.8-7.3
						c0.8-3,3-10.1,3-10.1l-25.3,2c0,0-0.1,1-1.3,5.9c-1.2,4.9,4.1,15.1,5.4,17.5c1.4,2.4,5.8,5.6,7.1,6.4c1.3,0.8,3.9,1.7,3.9,1.8
						s-6.7,13.8-6.7,13.8l-9.1,6.3l-0.7,1.2l11.7,2.6l4.7-5.4l10.3-21.1C143.4,144.6,142.5,144.1,142,143.3z M131.8,164.2l-4.2,4
						l-7.6-1.1l7.9-5l7.7-16.6c0,0-5.6-2.3-7.8-3.9c-2.2-1.6-5.2-6.5-5.9-8c-0.7-1.5-1.7-5.4-2-7.8c-0.3-2.4,0.5-7.8,0.5-7.8
						s21.1-3.3,20.2-1.1c-0.9,2.2-4,12.1-4.3,14.3c-0.3,2.1,0.7,6.8,1.1,8.2c0.5,1.4,1.8,3.3,2.1,3.8s1.6,1.8,1.5,2.1
						C140.8,145.7,131.8,164.2,131.8,164.2z"/>
				</g>
				<g id="Leg_Back_1_8_">
					<path id="Leg_Back_Color_15_" d="M134.7,124c0,0,1.2,5.3,2.4,7.5c1.2,2.1,3.5,5.5,4.7,6.6s5.8,4.7,8.4,5.3
						c2.7,0.7,8.7,0.8,8.7,0.8l-0.8,18.3l-6.4,6.2h6.6l3.8-5.8c0,0,1.7-20.6,1.7-20.8s-1.7-1.1-2.1-1.5s-2.3-1.7-3.3-2.8
						s-3.6-5.2-4-7.3c-0.5-2.1-1.1-12.5-1.1-14.9S134.7,124,134.7,124z"/>
					<path id="Dark_Shadow_31_" d="M134.7,128.5c0,0,2,3.5,2.7,4.3s0.7,0.8,0.7,0.8s5.4,0.6,8.9-0.6c3.5-1.2,6.9-4.5,7.5-5.2
						c0-1.3-0.6-9.1-0.6-9.1S150.1,124.7,134.7,128.5z"/>
					<polygon id="Color_24_" class="st1" points="135.5,128.9 143.9,128.5 149.9,138.1 152.3,139.8 151,144.1 145.3,141.8 
						137.3,133.6 					"/>
					<polygon id="Color_Shadow_24_" class="st1" points="135.2,129.1 137.2,133.8 146,133.1 144.3,127.8 					"/>
					<path id="Leg_Stroke_8_" d="M145.4,128.2c0,0,0.4,2.8,1.6,4.4c1.3,1.6,3.3,3.6,4,4.2s2.8,2,2.8,2l-1.5,7.2l-1.6-0.5l1.3-5.2
						c0,0-2.4-1.5-3.9-3.1s-3.8-3.8-4.4-7.2C143.2,126.3,145.3,127.8,145.4,128.2z"/>
					<path id="Leg_Back_Stroke_15_" d="M164.1,139.8c-0.7-0.5-4.1-3.7-5.1-4.9c-1-1.3-2.1-3.6-2.6-5.3s-0.7-4.4-1-7.5
						s-0.8-10.5-0.8-10.5l-22.9,11c0,0,0.2,1,0.9,6s9.2,12.6,11.4,14.4c2.1,1.8,7.5,3.1,8.9,3.4c1.5,0.3,4.3,0.1,4.3,0.3
						s-1.3,15.3-1.3,15.3l-7.3,7.8v1.3h10.8l4.4-7l2-23.4C165.8,140.5,164.8,140.4,164.1,139.8z M162.1,163l-3.8,5.8h-6.6l6.4-6.2
						l0.8-18.3c0,0-6.1-0.1-8.7-0.8c-2.7-0.7-7.2-4.2-8.4-5.3s-3.5-4.4-4.7-6.6c-1.2-2.1-2.4-7.5-2.4-7.5s18.5-10.7,18.5-8.3
						c0,2.4,0.7,12.8,1.1,14.9c0.5,2.1,3.1,6.1,4,7.3c1,1.1,2.8,2.5,3.3,2.8s2.1,1.2,2.1,1.5S162.1,163,162.1,163z"/>
				</g>
				<g id="Front_Leg_1_16_">
					<path id="Front_Leg_1_Color_16_" d="M81.3,91.3c0,0-10.6-3.4-11.2-3.4s-2.9,1.2-4.5,2.5s-4.8,5.7-5.4,7.3
						c-0.6,1.6-2.1,8.5-2.1,8.5l3.6,7.5l2.5-4.2l-3.5-1.5c0,0,4.4-10.7,4.7-11.4c0.3-0.7,1.7-1.8,2.7,0.1s8.3,13.8,8.3,13.8l1.9-7.2
						l4.1-11.8L81.3,91.3z"/>
					<polygon id="Color_23_" class="st1" points="70.3,87.2 71.8,92.2 80.4,96.9 83.7,91.8 					"/>
					<path id="Dark_Shadow_30_" d="M79,89.6c0,0-7.6,8.2-8.5,12.7c1.1,2.2,6,8.5,6,8.5l7.8-18.4L79,89.6z"/>
					<polygon id="Color_Shadow_23_" class="st1" points="79,90 74.5,94.1 78.6,96.4 83.3,91.3 					"/>
					<polygon id="Stroke_16_" points="80,96.4 72.1,91.8 70.7,87.3 68.9,87.7 70,92.7 79.1,98.4 					"/>
					<path id="Front_Left_stroke_16_" d="M63.2,107.3c-0.3-0.2,0.2-1.8,0.5-2.6c0.3-0.9,2.4-6.2,3-6.2s10.8,17.9,10.8,17.9l6.7-26.3
						c0,0-14-4.2-14.7-4.4c-0.6-0.2-6.7,2.8-9.1,6.9c-2.4,4.1-4.2,13.3-4.2,13.8c-0.1,0.6,5.3,11.5,5.3,11.5s5-8.6,5.2-8.8
						C66.9,108.8,63.6,107.5,63.2,107.3z M57.9,106.2c0,0,1.5-6.9,2.1-8.5s3.8-6,5.4-7.3c1.6-1.3,3.9-2.5,4.5-2.5s11.2,3.4,11.2,3.4
						l0.9,0.3l-4.1,11.8l-1.9,7.2c0,0-7.3-11.8-8.3-13.8S65.3,96,65,96.7s-4.7,11.4-4.7,11.4l3.5,1.5l-2.5,4.2L57.9,106.2z"/>
				</g>
				<g id="Front_Leg_1_15_">
					<path id="Front_Leg_1_Color_15_" d="M79.3,104.6c0,0-7.7,8.1-8,8.6c-0.3,0.6-0.2,3.2,0.3,5.2s3,6.8,4.2,8.1
						c1.2,1.2,6.8,5.6,6.8,5.6h8.3l-2.7-4.1l-2.9,2.5c0,0-7.7-8.6-8.2-9.2s-0.9-2.4,1.3-2.4c2.1,0,16-1.5,16-1.5l-5.6-4.8l-8.8-8.8
						L79.3,104.6z"/>
					<polygon id="Color_22_" class="st1" points="70.9,112.7 76,113.5 84,107.8 80.9,102.6 					"/>
					<path id="Dark_Shadow_1_8_" d="M76.8,105.9c0,0,4,10.4,7.7,13.2c2.5,0,10.3-1.7,10.3-1.7l-13.2-15L76.8,105.9z"/>
					<polygon id="Color_Shadow_22_" class="st1" points="77.2,106.1 79,111.9 82.8,109.3 80.2,102.8 					"/>
					<polygon id="Stroke_15_" points="83.4,107.9 75.8,113.1 71.2,112.4 70.8,114.2 75.7,115.4 84.8,109.7 					"/>
					<path id="Front_Left_stroke_15_" d="M85.9,127.8c-0.3,0.2-1.5-1-2.1-1.6s-4.6-4.8-4.3-5.3c0.3-0.5,20.8-2,20.8-2l-20.7-17.4
						c0,0-9.9,10.8-10.4,11.3c-0.4,0.5-0.4,7.3,2.2,11.2c2.6,3.9,10.1,9.5,10.6,9.8s12.7,0.2,12.7,0.2s-5.5-8.3-5.7-8.6
						C88.8,125.2,86.2,127.6,85.9,127.8z M82.6,132.1c0,0-5.6-4.4-6.8-5.6s-3.8-6.1-4.2-8.1c-0.5-2-0.5-4.6-0.3-5.2
						c0.3-0.6,8-8.6,8-8.6l0.6-0.7l8.8,8.8l5.6,4.8c0,0-13.9,1.5-16,1.5s-1.8,1.8-1.3,2.4s8.2,9.2,8.2,9.2l2.9-2.5l2.7,4.1h-8.2
						C82.6,132.2,82.6,132.1,82.6,132.1z"/>
				</g>
				<g id="Body_22_">
					<path id="Body_23_" d="M132.4,126.5c-6.6-0.1-15.2-1.9-21.8-3.5c-6.4-1.6-14-4.6-19.2-8.2c-2.6-1.8-4.5-3.1-7.8-7.6
						c-1.9-2.6-3-6-1.9-10.4l1.9-5.6c2.3-6.5,14.3-10,20.8-7.7c5.7,3,13.5,9.2,18.9,11.5c3.7,1.6,13.3,2.8,17.7,4.4
						c0.8,0.3,6.5,1.5,9.7,5.4c2.3,2.9,3.2,8,2.6,11.1c-0.2,1.2-2.6,5.3-4,6.5C147.4,123.9,140.6,126.5,132.4,126.5z"/>
					<path id="Body_Light_Shadow_8_" class="st1" d="M102,109.4c0,0,20.9,0.9,24.4,0c3.5-0.9,8.4,0.1,11.8,2.5
						c3.4,2.3,3.1,14,0,14.3s-7.8,1.4-16.1-0.4s-19-4-22.2-6.1S95.4,108,102,109.4z"/>
					<path id="Body_Dark_Shadow_8_" class="st1" d="M101.7,113.1c0,0,7.9,4.3,10.8,5.2c2.9,0.9,9,1.8,13.4,1.4s7,1.4,7,1.4
						s0.5,5.7-1.4,5.6c-2-0.1-18.8-2.5-18.8-2.5l-11.1-3.9l-5.7-3C96,117.3,99,111.7,101.7,113.1z"/>
					<path id="Body_Stroke_8_" d="M153.3,105.6c-2.5-5.3-7.3-7.2-8.3-7.5c-5.1-1.9-16.3-3.3-20.7-5.2c-6.3-2.7-11.6-6.7-18.2-10.3
						c-7.6-2.7-21.2,4-22.5,8.4l-2.9,3.7c0,0.1,0,0.1-0.1,0.2c-1.3,5-2.1,6.7-0.5,10c2.5,5.3,6.1,9.5,7,10c6.2,4,15,8,22.5,9.9
						c7.6,1.9,18.3,3.2,26,2.8c9.1-0.5,15.7-4,17.5-6.8c1.2-1.8,1.4-2.8,1.7-4.2C155.4,113.1,154.9,109,153.3,105.6z M153.4,115.9
						c-0.2,1.2-2.6,5.3-4,6.5c-2,1.6-8.8,4.2-16.9,4.1c-6.6-0.1-15.2-1.9-21.8-3.5c-6.4-1.6-14-4.6-19.2-8.2
						c-2.6-1.8-4.5-3.1-7.8-7.6c-1.9-2.6-3-6-1.9-10.4l3.8-5.4c2.3-6.5,12.8-8.5,19.3-6.1c5.7,3,13.2,7.4,18.5,9.7
						c3.7,1.6,13.3,2.8,17.7,4.4c0.8,0.3,6.5,1.5,9.7,5.4C153.1,107.6,154,112.8,153.4,115.9z"/>
				</g>
				<g id="Front_Disc_5_">
					<path class="st2" d="M98.8,81.3c-10.3,0-19.8,7.5-19.8,19c0,11,8.9,19.8,19.8,19.8c11,0,19.8-8.9,19.8-19.8
						C118.7,89.4,109.8,81.3,98.8,81.3z M98.8,117.9c-9.7,0-17.6-7.9-17.6-17.6s7.9-17.6,17.6-17.6s17.6,7.9,17.6,17.6
						C116.4,110.1,108.6,117.9,98.8,117.9z"/>
					<circle id="Front_Large_Disc_Color_8_" cx="98.8" cy="100.3" r="17.6"/>
					<path class="st2" d="M98.8,90.2c-5.4,0-9.7,4.4-9.7,9.7c0,5.4,4.4,9.7,9.7,9.7c5.4,0,9.7-4.4,9.7-9.7
						C108.6,94.6,104.2,90.2,98.8,90.2z M98.8,107.5c-4.2,0-7.6-3.4-7.6-7.6s3.4-7.6,7.6-7.6s7.6,3.4,7.6,7.6S103,107.5,98.8,107.5z
						"/>
					<circle id="Front_Small_Disc_Color_8_" class="st1" cx="98.8" cy="99.9" r="7.6"/>
				</g>
				<g id="Back_Disc_5_">
					<circle id="Back_Large_Disc_Color_8_" cx="139" cy="113.1" r="14.6"/>
					<circle id="Back_Small_Disc_8_" cx="139" cy="113.1" r="6.7"/>
					<path id="Dark_Shadow_29_" class="st1" d="M126.4,121.4c0,0,2.5-3.7,3.7-4.9s5.3-3.8,8-4.5s4.2-1.3,9.6-0.7
						c3.3,0.4,6.1,2,6.1,2s0.2,2.1,0,4.1c-0.2,1.9-2.5,5.7-4,6.9c-1.4,1.3-3.3,2.7-5.4,3.3c-2.1,0.6-3.3,1.2-5.5,1s-6.8-1.4-8.5-2.6
						C128.7,124.6,127,122.6,126.4,121.4z"/>
					<path id="White_Highlight_8_" class="st1" d="M129.9,124.5c0,0,3.3,2,6.3,2.2s6.3-0.6,7.4-0.9c1.4-0.5,4.6-2.3,5.5-3.4
						c1-1,2-2.3,2.5-3.1s2.1-4.7,2.1-4.7s0.2,2.5-0.6,4.7s-1.9,3.7-3.3,4.9c-1.4,1.3-4.1,2.9-6,3.5c-1.9,0.6-4.1,0.9-6.1,0.6
						C135.8,128.2,132.5,127.4,129.9,124.5z"/>
					<path id="Back_Small_Disc_Stroke_8_" class="st2" d="M139,96.7c-9.1,0-16.4,7.3-16.4,16.4s7.3,16.4,16.4,16.4
						s16.4-7.3,16.4-16.4C155.4,104.1,148.1,96.7,139,96.7z M139,127.8c-8.1,0-14.6-6.5-14.6-14.6s6.5-14.6,14.6-14.6
						s14.6,6.5,14.6,14.6C153.6,121.2,147.1,127.8,139,127.8z"/>
					<path id="Back_Large_Disc_Stroke_8_" class="st2" d="M139,104.2c-4.9,0-8.9,4-8.9,8.9s4,8.9,8.9,8.9s8.9-4,8.9-8.9
						S143.9,104.2,139,104.2z M139,119.8c-3.7,0-6.7-3-6.7-6.7s3-6.7,6.7-6.7s6.7,3,6.7,6.7S142.7,119.8,139,119.8z"/>
				</g>
				<g id="Tail_8_">
					<path d="M144.8,97.8c0,0,5.3-0.7,11,2.6c5.7,3.3,11.8,7.5,14.4,8.2c2.6,0.7,7,1.3,9.6,0s7-6.1,7.8-9.1c0.7-3,2.2-1.4,3.1,1
						c0.8,2.4,2.7,7.1,2.1,12.1c-0.6,5-2.2,9-5.9,11.9s-10.8,3.6-14.4,2.5s-7.8-3.3-9.6-4.9s-5.9-7-6.4-7.6s-2.5-5.3-3.1-6.4
						C152.9,107,150.5,101.6,144.8,97.8z"/>
					<path id="Tail_Stroke_8_" d="M190.7,100.4c-0.8-2.4-2.3-4-3.1-1c-0.7,3-5.2,7.8-7.8,9.1s-6.9,0.7-9.6,0
						c-2.6-0.7-8.8-4.9-14.4-8.2c-5.7-3.3-11-2.6-11-2.6c5.6,3.8,8.1,9.2,8.7,10.2c0.6,1.1,2.6,5.8,3.1,6.4s4.5,6,6.4,7.6
						c1.8,1.6,5.9,3.7,9.6,4.9c3.6,1.2,10.8,0.4,14.4-2.5s5.3-6.9,5.9-11.9C193.4,107.5,191.5,102.8,190.7,100.4z M150.7,100.4
						c0,0,5.4,2,9.5,5.1c3.6,2.8,7,4.1,8.7,4.8c1.7,0.7,3.5,1.1,6.3,1.1c2.7,0,5.5-0.7,8-2.5s4.6-5.6,4.6-5.6s0.3,3.1,0,4.9
						s-1.2,4-2.3,5.8s-3.6,4.7-7.3,5s-7,0-10.8-3.6s-5.3-5.4-6.9-6.6s-4.9-2.7-5.8-3.5S151.4,101.7,150.7,100.4z M190.7,113.1
						c-0.6,2.6-2,7.2-5,9.4s-5.7,3.6-12.1,2.3c-6.4-1.2-9.2-4.6-10.5-5.8s-3.6-4.5-4.4-5.7c-0.7-1.2-1.9-3-3.3-4.8
						c0,0,1.2,0.3,2.6,1.2s3.3,3.1,4.3,4.2s3.4,3.6,4.9,4.5s4.3,2.4,6.9,2.9c2.6,0.5,5.7,0,7-0.7s4.6-2.1,6.4-5.6
						c1.7-3.4,2.7-7.3,2.7-8.6S191.3,110.6,190.7,113.1z"/>
					<path id="Tail_Pink_8_" d="M150.7,100.4c0,0,5.4,2,9.5,5.1c3.6,2.8,7,4.1,8.7,4.8c1.7,0.7,3.5,1.1,6.3,1.1c2.7,0,5.5-0.7,8-2.5
						s4.6-5.6,4.6-5.6s0.3,3.1,0,4.9s-1.2,4-2.3,5.8s-3.6,4.7-7.3,5c-3.8,0.3-7,0-10.8-3.6s-5.3-5.4-6.9-6.6
						c-1.6-1.2-4.9-2.7-5.8-3.5C153.8,104.6,151.4,101.7,150.7,100.4z"/>
					<path id="Tail_Pink_Shadow_8_" class="st1" d="M162.3,109.7c0,0,2.2,1.8,6.2,3.5s9.9,1.8,11.4,1.3c1.5-0.4,4.2-2.6,5-4
						s1.5-2.4,2-3.4c0.4-1,0.9-2.4,0.9-2.4s-0.1,4-0.9,6.1c-0.8,2.1-2.9,5.2-4.5,6.3c-1.6,1.1-5,2.2-7.6,1.6c-2.6-0.7-5.4-2-6.9-3.4
						S163.2,110.8,162.3,109.7z"/>
					<path id="Tail_Grey_8_" d="M155.4,108.6c0,0,1.2,0.3,2.6,1.2c1.4,0.9,3.3,3.1,4.3,4.2s3.4,3.6,4.9,4.5s4.3,2.4,6.9,2.9
						c2.6,0.5,5.7,0,7-0.7s4.6-2.1,6.4-5.6c1.7-3.4,2.7-7.3,2.7-8.6c0-1.3,1.2,4.1,0.6,6.7s-2,7.2-5,9.4c-3.1,2.2-5.7,3.6-12.1,2.3
						c-6.4-1.2-9.2-4.6-10.5-5.8c-1.2-1.2-3.6-4.5-4.4-5.7C158,112.2,156.8,110.4,155.4,108.6z"/>
					<path id="Tail_White_Highlight_8_" class="st1" d="M173.8,124.8c0,0,3.4,0.1,5.7-0.4s5.2-2.2,7.2-4.4s2.8-5.2,3.3-6.8
						s0.7-4.3,0.7-4.3s0.4,3.3,0.1,5.1c-0.3,1.5-1.2,5.2-3.3,7.2s-3.8,3.4-6.9,4C177.6,125.8,175.3,125.2,173.8,124.8z"/>
				</g>
			</g>
			<g id="Head_16_" class="st2">
				<path id="Face_8_" class="st3" d="M96.1,49.4l0.4,6.1l1.3,0.8c0.9,0.5,2,0.6,2.9,0.2l2.1-0.9l-0.3-6.1L96.1,49.4L96.1,49.4z"/>
				<polygon id="Eyes_8_" class="st4" points="95,44.5 95,49.5 97.8,50.7 102.1,50.7 104.7,48.3 104.5,43.9 				"/>
				<path id="Head_Color_8_" class="st5" d="M97.2,36.8l-3.3,1.4l-0.8,13.3l4.2,4.5l0.4-5.3l-2.6-1.8L95,44.5l3.5,3.2l2.3,0.2
					l3.6-3.5l0.2,3.9l-3,2.3l-0.1,5.9l5.9-5.9l-0.9-12.8l-4.9-1.3C100.2,36,98.6,36.1,97.2,36.8z"/>
				<path id="Head_Stroke_8_" class="st6" d="M101.1,50.7l-0.1,5.8c0,0.5,0.6,0.8,1,0.4l6.2-6.3l-0.6-11.9c0-0.7-0.5-1.2-1.1-1.4
					l-5.1-1.5c-1-0.3-2.1-0.3-3.1,0.2l-4.1,1.7c-0.6,0.2-1,0.8-1,1.4l-0.6,12.6l4.6,4.8c0.3,0.3,0.8,0.1,0.8-0.3l0.1-5.7
					c0-0.1-0.1-0.3-0.2-0.4L95.8,49c-0.2-0.1-0.3-0.3-0.3-0.4l-0.1-2.8c0-0.2,0.3-0.4,0.4-0.2l2.6,2.2l2.3,0.2l2.9-2.5
					c0.2-0.2,0.5,0,0.5,0.2V48c0,0.2-0.1,0.5-0.3,0.6l-2.5,1.8C101.2,50.3,101.1,50.5,101.1,50.7z M104.1,43.7l-3.5,3.1l-1.9-0.1
					l-3.5-3c-0.3-0.2-0.7,0-0.7,0.3l0.2,4.8c0,0.3,0.1,0.5,0.4,0.6l1.8,1.1c0.1,0.1,0.2,0.2,0.2,0.4l-0.2,3.9L93.6,51l0.6-12
					c0-0.4,0.3-0.7,0.7-0.9l4-1.2c0.6-0.2,1.3-0.2,2-0.1l4.6,1c0.5,0.1,0.9,0.6,0.9,1.1l0.8,11.1l-5.1,5.4V51c0-0.1,0.1-0.3,0.2-0.4
					l2.5-1.6c0.2-0.1,0.4-0.4,0.4-0.7l-0.1-4.2C105,43.6,104.5,43.4,104.1,43.7z"/>
			</g>
			<g id="Lt_Hand_8_">
				<g id="Shoulder_8_">
					<path d="M113.9,56.5l2.4-3.4c0,0,3.2-0.7,3.7,2.3c-0.5,0.7-2.1,3.9-2.1,3.9L113.9,56.5z"/>
					<path d="M115.9,55.4c-1.3,0-2.4,1.2-2.4,2.6s1.1,2.6,2.4,2.6s2.4-1.2,2.4-2.6S117.2,55.4,115.9,55.4z M115.9,60.2
						c-1.1,0-2.1-1-2.1-2.2s0.9-2.2,2.1-2.2c1.1,0,2.1,1,2.1,2.2S117,60.2,115.9,60.2z"/>
					<ellipse class="st1" cx="115.9" cy="57.9" rx="2.1" ry="2.2"/>
					<ellipse class="st7" cx="116" cy="57.8" rx="1.3" ry="1.5"/>
					<ellipse cx="115.9" cy="57.5" rx="1.2" ry="1.3"/>
				</g>
				<g id="Arm_16_">
					<polygon points="120,55.9 118.7,59.5 135.9,67.8 137.1,63.6 					"/>
					<polygon class="st1" points="119.3,57.8 136.5,65.7 135.9,67.8 118.7,59.5 					"/>
					<path d="M119.9,54.9l-2,4.9l18.5,8.8l1.4-5.4L119.9,54.9z M135.9,67.8l-17.2-8.3L120,56l17.1,7.6L135.9,67.8z"/>
				</g>
				<g id="Wrist_8_">
					<path d="M122.2,62.4l-0.5,0.5l1.4,4.2l15,1.9c0,0,2.6-2.3-0.5-5C136.4,63.9,122.2,62.4,122.2,62.4z"/>
					<polygon class="st1" points="122,63.4 138.7,65.5 139,67.2 138,69 123,67.1 123.1,64.9 					"/>
					<path d="M137.7,63.6l-16-2l-1,1l1.8,5.5l15.7,1.7C138.2,69.8,142.7,66.5,137.7,63.6z M138,69l-15-1.9l-1.4-4.2l0.5-0.5
						c0,0,14.2,1.5,15.3,1.6C140.6,66.7,138,69,138,69z"/>
				</g>
				<g id="Finger_8_">
					<g id="Thumb_16_">
						<polygon points="118.1,64.9 115.2,67.7 114.9,71 115.6,72.7 118.2,65.3 						"/>
						<polygon class="st1" points="117.1,65.9 115.6,67.6 115.4,71.5 115.6,72.7 116.4,67.5 						"/>
						<path d="M118.3,64.2l-3.4,3.3l-0.3,3.5l1.1,2.6l3-8.7L118.3,64.2z M115.6,72.7l-0.7-1.8l0.3-3.2l2.9-2.9l0.1,0.4L115.6,72.7z"
							/>
					</g>
					<path d="M119.4,63.6l-2.7,3.6l-0.8,6.3l0.4,4.7l0.6-0.4v-3.6l1.1-4.6l2,0.9l0.3,3.6v2.8h0.5l0.6-3.2v-4l1.5-4.1l-0.9-2.4
						C122,63.4,120.5,62.7,119.4,63.6z"/>
					<path class="st1" d="M120,64.5l-2.1,2.5l-0.4,1.5l2.7,1.4l1.2-0.2l1.5-4.1l-1.3-2C121.6,63.7,120.1,63.7,120,64.5z"/>
					<polygon class="st1" points="117.8,68.3 117.4,68.8 116.5,73.5 116.8,77.9 117.1,77.7 117.1,73.7 118.2,69 					"/>
					<polygon class="st1" points="120.3,69.7 120.6,72.3 120.6,77.1 120.9,77.2 121.6,73.6 121.6,69.5 					"/>
					<path d="M122.4,63.1c0,0-1.5-1-3.5,0.2l-2.6,3.7l-0.9,6.4l0.7,5.3l1.3-0.7v-3.8l0.9-3.9l1.3,0.5l0.4,3.5v3.2h1.1l0.8-3.7v-3.9
						l1.5-4.2L122.4,63.1z M121.4,69.8v4l-0.6,3.2h-0.5v-2.8l-0.3-3.6l-2-0.9l-1.1,4.6v3.6l-0.6,0.4l-0.4-4.7l0.8-6.3l2.7-3.6
						c1.1-0.9,2.6-0.2,2.6-0.2l0.9,2.4L121.4,69.8z"/>
				</g>
			</g>
			<g id="Rt_Hand_8_">
				<g id="Arm_15_">
					<path d="M79.9,56.4l2.1,5.1l3.1-1.3l1.6-6.6l-2.2-1c0,0,0.3,0.6,0.1,1c-0.2,0.5-0.6,1.3-1.1,1.7s-1.3,1-1.9,1.2
						C81,56.6,80.4,56.6,79.9,56.4z"/>
					
						<ellipse id="Elbow_Grey_8_" transform="matrix(0.7671 -0.6416 0.6416 0.7671 -15.8096 65.4433)" class="st1" cx="82.2" cy="54.5" rx="2.6" ry="1.1"/>
					
						<ellipse id="Elbow_joint_8_" transform="matrix(0.7671 -0.6416 0.6416 0.7671 -15.9142 65.3947)" cx="82.1" cy="54.6" rx="1.4" ry="0.7"/>
					<path id="ElbowStroke_8_" d="M84.4,52.6c-0.5-0.6-1.9-0.3-3.1,0.8c-1.2,1-1.8,2.4-1.3,3s1.9,0.3,3.1-0.8
						C84.4,54.6,84.9,53.2,84.4,52.6z M82.9,55.4c-1.1,0.9-2.4,1.3-2.8,0.8s0.2-1.6,1.3-2.6c1.1-0.9,2.4-1.3,2.8-0.8
						C84.6,53.3,84,54.4,82.9,55.4z"/>
					<path d="M80,57.7c0,0-9.4,16.3-10,16.7s2.2,4.3,4.1,1.4s9.5-14.9,9.6-15.1s0.5-0.2,0.5-0.7C84.2,59.5,82.9,57.3,80,57.7z"/>
					<path class="st8" d="M79.8,57.1c0,0-8.6,15.5-10.5,17.3c-2,1.8,3.3,4.6,5.3,1.5s9.1-14.8,9.8-15.3C85,60.2,84.6,57.3,79.8,57.1
						z M83.5,60.6c-0.2,0.2-7.6,11.9-9.5,14.9c-1.9,2.9-4.3-0.5-3.8-1c0.6-0.4,9.9-16.5,9.9-16.5c2.9-0.3,3.7,1.4,3.7,1.9
						C83.8,60.4,83.7,60.5,83.5,60.6z"/>
					<path class="st1" d="M83.3,59.1L72.7,75.8l0.5,0.6l10.4-15.8C83.5,60.6,84.1,60,83.3,59.1z"/>
				</g>
				<g id="Fingers_Right_8_">
					<g id="Top_Part_8_">
						<polygon points="69,72.6 69.8,73.4 70.5,73.2 72.6,73 71.2,72.6 						"/>
						<polygon class="st1" points="69.7,72.8 69.5,72.5 71.2,72.6 72.5,72.8 70.3,73.2 						"/>
						<path d="M71.3,72.4h-2.9l1.4,1.3l0.9-0.3l2.3-0.2v-0.3L71.3,72.4z M70.5,73.2l-0.7,0.2L69,72.6h2.2l1.3,0.4L70.5,73.2z"/>
					</g>
					<polygon points="63.5,59.6 67.2,64.2 67.7,68.4 69.6,72.4 72.9,75.5 76.4,80.6 76.8,82.5 78.5,83.7 83.7,94.3 87,98.1 
						90.7,103.7 89.7,104.2 87.8,101 86.4,98.8 82.9,94.9 77.8,85.5 76.2,83.7 74.8,80.6 71.8,76.1 68.2,72.4 66.8,68.7 66.2,64.9 
						63.5,60.7 61,58.8 59.3,56.6 57.2,53.5 55.3,48.7 57.1,51.2 58.4,54 					"/>
					<g id="Finger_1_8_">
						<polygon points="68.5,73 67.5,74.5 69,76.6 72.7,79.5 73.4,78.4 70.4,74.8 						"/>
						<polygon class="st1" points="68.1,73.5 69.9,75.1 73,78.7 70.7,77.9 69,76.6 67.5,74.5 						"/>
						<path d="M70.7,74.6l-2.3-2.3L67,74.5l1.8,2.3l3.9,3l1.1-1.5L70.7,74.6z M72.7,79.5L69,76.6l-1.6-2.1l1-1.6l2,1.8l3,3.6
							L72.7,79.5z"/>
					</g>
					<g id="Finger_2_8_">
						<polygon points="67.9,76.2 67.2,76.7 67.1,78.9 70.2,79.9 73.9,80.2 74.2,79.1 67.4,76.9 68.3,76.6 						"/>
						<polygon class="st1" points="67.1,77.6 70.2,78.7 74.1,79.5 73.9,80.2 70.2,79.9 67.1,78.9 						"/>
						<path d="M70.7,77.9l-2.6-1l0.7-0.1l-0.8-1l-1.1,0.7L66.8,79l3.4,1.3l4.1,0.3l0.3-1.7L70.7,77.9z M73.9,80.2l-3.8-0.3l-3.1-1
							l0.1-2.1l0.8-0.5l0.3,0.4L67.3,77l6.8,2.2L73.9,80.2z"/>
					</g>
					<g id="Thumb_15_">
						<polygon points="74.6,73 74.2,75.4 73,76.9 73.9,77.9 75.4,76.2 76.1,73.7 75.3,73 						"/>
						<polygon class="st1" points="75.3,73 75,75.1 73.4,77.3 73.9,77.9 75.4,76.2 76.1,73.7 						"/>
						<path d="M75.5,72.5l-1.1,0.2l-0.5,2.4l-1.3,1.7l1.3,1.7l1.9-2.2l0.8-2.7L75.5,72.5z M75.4,76.2l-1.6,1.7l-0.8-1l1.2-1.5
							l0.4-2.4h0.7l0.8,0.8L75.4,76.2z"/>
					</g>
				</g>
			</g>
		</g>
		<g id="Head_15_">
			<path d="M94.6,37.2l-1.7,1.2L92.5,42l1.3,2.3l-0.9,13.3c0,0,2,3.3,7.3,3.1s8.2-3.1,8.2-3.1L107,44.9l1.1-2.9l-0.4-3.5l-1.5-1.2
				L94.6,37.2L94.6,37.2z"/>
			<g id="Bread_Lines_8_">
				<line class="st9" x1="100.1" y1="60.7" x2="100.1" y2="54.9"/>
				<line class="st9" x1="101.1" y1="60.7" x2="101.1" y2="56.3"/>
				<line class="st9" x1="102.1" y1="60.7" x2="102.1" y2="57.9"/>
				<line class="st9" x1="99.1" y1="60.7" x2="99.1" y2="56.3"/>
				<line class="st9" x1="98.1" y1="60.7" x2="98.1" y2="57.9"/>
			</g>
			<polygon points="92.5,42.6 93.8,45.7 94.6,39.2 95.2,38.6 97.8,38.6 105.6,38.6 106.2,39.5 106.8,46.4 108.5,42.6 108.1,38.6 
				106.2,36.8 94.8,36.8 92.7,38 			"/>
			<path d="M107.7,44.7l1.3-2.8l-0.5-4.1l-2.3-1.5H94.6l-2.3,1.5l-0.7,4.1l1.4,2.4l-1.1,13.4c0,0,2,4,8.3,3.8s8.9-3.9,8.9-3.9
				L107.7,44.7z M100.1,60.7c-5.3,0.2-7.3-3.1-7.3-3.1l0.9-13.3L92.4,42l0.5-3.5l1.7-1.2h11.6l1.5,1.2l0.4,3.5l-1.1,2.9l1.4,12.7
				C108.3,57.6,105.4,60.5,100.1,60.7z"/>
			<polygon points="94.3,45.1 94.7,38.8 105.6,38.6 106.2,39.5 106.3,46.2 104.5,45.7 98,45.5 95.4,45.7 94.4,46.5 			"/>
			<polygon class="st1" points="94.6,44.7 96,44 105,44 106.2,44.7 106.2,46.2 104.7,45.5 95.9,45.5 94.6,46.4 			"/>
			<polygon class="st1" points="94.6,40.8 96,40.1 105,40.1 106.2,40.8 106.2,41.5 104.7,40.8 95.9,40.8 94.6,41.7 			"/>
			<polygon class="st1" points="94.6,42.9 96,42.1 105,42.1 106.2,42.9 106.2,43.5 104.7,42.8 95.9,42.8 94.6,43.7 			"/>
			<polygon class="st10" points="99.7,38.6 98.5,44.1 100.1,45.3 100.6,45.3 102.3,44 101.3,38.6 			"/>
			<polygon points="94.4,46.5 94.1,51.4 95.6,52.3 100.1,53.3 104.6,52.3 106.6,51.7 106.6,49.2 106.4,46.8 105.3,46 102.9,45.7 
				96.2,45.7 95.2,45.7 			"/>
			<polygon points="95.7,45.7 94.8,46.7 106.1,46.6 105.2,45.7 			"/>
			<path d="M105.6,38H95.2c-0.6,0-1,0.4-1.1,1l-0.7,12.2c0,0.5,0.3,1,0.8,1.1l5.6,1.3c0.2,0,0.3,0,0.5,0l6-1.3
				c0.5-0.1,0.9-0.6,0.8-1.1L106.7,39C106.6,38.5,106.2,38,105.6,38z M100.1,52.7l-5-1c-0.5-0.1-0.9-0.6-0.8-1.1l0.6-10.8
				c0-0.6,0.5-1,1.1-1h8.9c0.6,0,1,0.4,1.1,1l0.5,10.9c0,0.5-0.3,1-0.9,1.1l-5,1C100.4,52.7,100.2,52.7,100.1,52.7z"/>
			<circle class="st11" cx="97.5" cy="46.3" r="1"/>
			<circle class="st11" cx="103.1" cy="46.3" r="1"/>
			<path d="M94.5,47.3l1-0.9c0.1-0.1,0.2-0.2,0.4-0.2h9c0.1,0,0.3,0.1,0.4,0.2l1,1c0.3,0.3,0.1-0.6,0.1-1.1v-0.1
				c0-0.2-0.1-0.3-0.2-0.4l-0.8-0.5c-0.1-0.1-0.2-0.1-0.3-0.1h-9.4c-0.1,0-0.2,0-0.3,0.1l-0.7,0.6c-0.1,0.1-0.2,0.3-0.2,0.4l0,0
				C94.3,46.7,94.2,47.6,94.5,47.3z"/>
			<polygon class="st12" points="97.1,50.5 96.2,51.5 96.2,55.4 98.1,54.5 99,53.4 101.1,53.3 102.1,54.1 104.1,55.6 104.1,51.7 
				103.5,50.5 			"/>
			<path class="st2" d="M104.5,51.6c0-0.4-0.2-1.3-1.4-1.5c-0.4-0.1-5.7,0-6,0s-1.4,0.5-1.4,1.5s0,4.5,0,4.5s3-0.6,3.5-2.4
				c0.3,0,1.5,0.1,1.9,0c0,0,1.5,2.3,3.3,2.4C104.5,55.7,104.5,52.1,104.5,51.6z M103.7,55c-1.9-0.9-2.3-3.2-2.3-3.2s-1,0-1.3,0
				s-0.8,0-1.2,0c0,2.4-2.4,3.2-2.4,3.2s0-2.5,0-3.1s0.4-1,0.8-1s5,0,5.6,0s0.8,0.6,0.8,0.9S103.7,54.7,103.7,55z"/>
			<rect x="99.7" y="52.5" class="st13" width="1.1" height="0.5"/>
			<g id="Tuppi_8_">
				<circle cx="100.7" cy="31.6" r="1.4"/>
				<g id="Bun1_16_">
					<path d="M103.6,34.3h-5.7c-0.7,0-1.4,0.6-1.4,1.4v0.2c0,0.7,0.6,1.4,1.4,1.4h5.7c0.7,0,1.4-0.6,1.4-1.4v-0.2
						C105,34.9,104.4,34.3,103.6,34.3z M103.9,35.7c0,0.4-0.4,0.8-0.8,0.8h-4.8c-0.4,0-0.8-0.4-0.8-0.8l0,0c0-0.4,0.4-0.8,0.8-0.8
						h4.8C103.6,34.9,103.9,35.3,103.9,35.7L103.9,35.7z"/>
					<path d="M103.1,36.5h-4.8c-0.4,0-0.8-0.4-0.8-0.8l0,0c0-0.4,0.4-0.8,0.8-0.8h4.8c0.4,0,0.8,0.4,0.8,0.8l0,0
						C103.9,36.2,103.6,36.5,103.1,36.5z"/>
				</g>
				<g id="Bun1_15_">
					<path d="M103.6,31.5h-5.7c-0.7,0-1.4,0.6-1.4,1.4v0.2c0,0.7,0.6,1.4,1.4,1.4h5.7c0.7,0,1.4-0.6,1.4-1.4v-0.2
						C105,32.1,104.4,31.5,103.6,31.5z M103.9,33c0,0.4-0.4,0.8-0.8,0.8h-4.8c-0.4,0-0.8-0.4-0.8-0.8l0,0c0-0.4,0.4-0.8,0.8-0.8h4.8
						C103.6,32.2,103.9,32.6,103.9,33L103.9,33z"/>
					<path d="M103.1,33.8h-4.8c-0.4,0-0.8-0.4-0.8-0.8l0,0c0-0.4,0.4-0.8,0.8-0.8h4.8c0.4,0,0.8,0.4,0.8,0.8l0,0
						C103.9,33.4,103.6,33.8,103.1,33.8z"/>
				</g>
			</g>
		</g>
	</g>
</g>
<g id="Layer_4">
</g>
<g id="Layer_6">
</g>
</svg>
